<?xml version="1.0" standalone="no"?>
<!DOCTYPE svg PUBLIC "-//W3C//DTD SVG 20010904//EN"
 "http://www.w3.org/TR/2001/REC-SVG-20010904/DTD/svg10.dtd">
<svg version="1.0" xmlns="http://www.w3.org/2000/svg"
 width="424.000000pt" height="160.000000pt" viewBox="0 0 424.000000 160.000000"
 preserveAspectRatio="xMidYMid meet">

<g transform="translate(0.000000,160.000000) scale(0.100000,-0.100000)"
fill="#000000" stroke="none">
<path d="M2076 1260 c-63 -20 -106 -85 -106 -160 0 -89 51 -138 175 -169 116
-29 150 -44 171 -75 21 -32 15 -108 -11 -136 -29 -32 -99 -54 -150 -47 -76 11
-101 30 -143 110 l-37 72 -3 -94 c-1 -51 -1 -96 2 -98 2 -2 18 3 36 12 29 15
35 15 71 1 58 -23 153 -21 199 5 98 55 109 225 20 291 -14 10 -71 31 -127 47
-56 15 -114 36 -128 45 -53 35 -54 104 -4 152 23 22 41 29 88 32 91 7 122 -8
154 -73 15 -30 31 -55 37 -55 6 0 10 32 10 76 0 75 0 76 -22 69 -27 -9 -61 -9
-143 -1 -33 3 -73 1 -89 -4z"/>
<path d="M300 1169 c0 -100 13 -101 53 -1 l29 72 59 0 59 0 0 -275 0 -275 -29
0 c-17 0 -33 -4 -36 -10 -4 -6 34 -10 106 -10 69 0 109 4 104 9 -6 5 -21 11
-35 13 l-25 3 -3 273 -2 273 61 -3 62 -3 26 -69 c37 -98 51 -97 51 3 l0 81
-240 0 -240 0 0 -81z"/>
<path d="M840 1241 c8 -6 23 -11 33 -11 16 0 17 -20 17 -270 l0 -270 -30 0
c-16 0 -30 -4 -30 -10 0 -6 42 -10 105 -10 59 0 105 4 105 9 0 6 -15 11 -32
13 l-33 3 -3 128 -3 127 54 0 c91 0 113 -29 137 -177 12 -77 28 -99 76 -108
32 -6 95 21 102 43 3 11 0 12 -16 3 -46 -24 -60 -15 -72 47 -6 31 -15 74 -20
94 -11 40 -57 84 -97 94 -23 6 -20 9 28 28 69 28 93 61 93 129 0 60 -21 99
-68 125 -25 13 -64 17 -196 20 -115 2 -160 0 -150 -7z m280 -30 c50 -36 64
-107 36 -176 -19 -44 -61 -65 -131 -65 l-55 0 0 128 c0 71 3 132 8 136 12 13
115 -4 142 -23z"/>
<path d="M1360 1240 c8 -5 22 -10 32 -10 14 0 16 -24 20 -227 3 -219 4 -230
27 -266 35 -57 84 -77 183 -77 111 1 161 22 188 82 17 38 20 67 20 255 l0 213
38 17 37 17 -42 4 c-24 2 -62 2 -85 0 l-43 -4 38 -17 37 -17 0 -210 c0 -251
-5 -270 -76 -302 -57 -25 -143 -20 -183 10 -51 37 -56 60 -59 294 -3 204 -3
218 15 224 60 19 51 23 -52 23 -74 1 -105 -2 -95 -9z"/>
<path d="M2420 1170 c0 -103 16 -105 53 -5 l28 75 60 0 59 0 -2 -272 -3 -273
-25 -3 c-14 -2 -29 -8 -35 -13 -5 -5 36 -9 105 -9 69 0 110 4 105 9 -6 5 -21
11 -35 13 l-25 3 -3 273 -2 273 61 -3 61 -3 26 -69 c38 -98 52 -97 52 3 l0 81
-240 0 -240 0 0 -80z"/>
<path d="M2950 1240 c8 -5 25 -10 38 -10 l22 0 0 -270 0 -270 -29 0 c-17 0
-33 -4 -36 -10 -4 -7 72 -10 219 -10 l226 0 0 90 c0 50 -4 90 -9 90 -5 0 -23
-35 -39 -77 l-29 -78 -112 -3 -111 -3 0 271 0 270 23 0 c12 0 29 5 37 10 10 7
-22 10 -100 10 -78 0 -110 -3 -100 -10z"/>
<path d="M3395 1240 c11 -5 27 -10 35 -13 8 -2 55 -74 103 -159 l88 -155 -3
-109 -3 -109 -32 -3 c-18 -2 -33 -7 -33 -13 0 -5 46 -9 105 -9 63 0 105 4 105
10 0 6 -13 10 -30 10 l-30 0 0 129 0 128 75 129 c41 71 86 135 100 143 14 9
25 19 25 23 0 5 -36 8 -81 8 -84 0 -95 -10 -34 -30 19 -6 35 -16 35 -22 0 -13
-123 -228 -130 -228 -6 0 -150 245 -150 254 0 3 8 6 18 6 9 0 24 5 32 10 10 7
-22 10 -100 9 -73 0 -108 -3 -95 -9z"/>
<path d="M190 563 c0 -14 85 -213 91 -213 7 0 89 191 89 208 0 28 -19 -1 -50
-77 -18 -44 -36 -78 -40 -76 -4 3 -22 41 -41 85 -18 44 -36 80 -41 80 -4 0 -8
-3 -8 -7z"/>
<path d="M1640 460 l0 -110 43 0 c71 0 116 41 117 106 0 68 -55 114 -137 114
-22 0 -23 -3 -23 -110z m115 55 c37 -36 34 -86 -6 -119 -18 -15 -43 -26 -60
-26 l-29 0 0 85 0 85 35 0 c25 0 44 -8 60 -25z"/>
<path d="M3285 558 c-2 -7 -6 -51 -7 -98 l-3 -85 -32 0 c-20 0 -33 -5 -33 -12
0 -8 13 -13 34 -13 52 0 66 27 66 127 0 74 -13 115 -25 81z"/>
<path d="M730 515 c0 -18 -5 -25 -20 -25 -11 0 -20 -4 -20 -10 0 -5 9 -10 20
-10 18 0 20 -7 20 -60 0 -33 4 -60 10 -60 6 0 10 27 10 60 0 47 3 60 15 60 8
0 15 5 15 10 0 6 -7 10 -15 10 -9 0 -15 9 -15 25 0 14 -4 25 -10 25 -5 0 -10
-11 -10 -25z"/>
<path d="M880 530 c0 -5 5 -10 10 -10 6 0 10 5 10 10 0 6 -4 10 -10 10 -5 0
-10 -4 -10 -10z"/>
<path d="M3642 531 c4 -13 18 -16 19 -4 0 4 -5 9 -11 12 -7 2 -11 -2 -8 -8z"/>
<path d="M481 464 c-12 -15 -21 -34 -21 -44 0 -34 39 -70 75 -70 36 0 75 36
75 70 0 34 -39 70 -75 70 -24 0 -39 -7 -54 -26z m96 -24 c27 -55 -49 -97 -83
-46 -15 24 -15 28 0 52 22 33 65 30 83 -6z"/>
<path d="M880 420 c0 -40 4 -70 10 -70 6 0 10 30 10 70 0 40 -4 70 -10 70 -6
0 -10 -30 -10 -70z"/>
<path d="M1010 418 c0 -53 3 -68 14 -68 11 0 16 15 18 51 3 55 21 78 52 66 12
-5 16 -20 16 -62 0 -30 5 -55 10 -55 15 0 12 115 -2 128 -7 6 -34 10 -60 10
l-48 -1 0 -69z"/>
<path d="M1256 474 c-9 -8 -19 -27 -22 -41 -13 -51 62 -105 102 -72 22 18 18
-34 -4 -54 -24 -22 -34 -21 -66 4 -36 28 -45 17 -13 -15 31 -31 66 -33 95 -6
19 18 22 31 22 110 0 53 -4 90 -10 90 -5 0 -10 -5 -10 -12 0 -9 -3 -9 -12 0
-17 17 -64 15 -82 -4z m78 -20 c31 -30 9 -84 -34 -84 -11 0 -27 11 -36 25 -15
23 -15 27 0 50 19 29 47 32 70 9z"/>
<path d="M1920 470 c-43 -43 -11 -120 48 -120 31 0 71 24 59 36 -4 4 -18 2
-31 -5 -27 -15 -61 -7 -70 14 -4 12 6 15 54 15 53 0 60 2 60 20 0 29 -36 60
-70 60 -17 0 -39 -9 -50 -20z m86 -17 c17 -17 17 -18 -9 -21 -15 -2 -39 -2
-54 0 -26 3 -26 4 -9 21 10 9 26 17 36 17 10 0 26 -8 36 -17z"/>
<path d="M2140 420 c0 -54 3 -70 14 -70 11 0 16 15 18 51 3 55 21 78 52 66 12
-5 16 -20 16 -62 0 -30 5 -55 10 -55 14 0 12 114 -2 128 -7 7 -21 12 -33 12
-12 0 -26 -5 -33 -12 -9 -9 -12 -9 -12 0 0 7 -7 12 -15 12 -12 0 -15 -14 -15
-70z"/>
<path d="M2381 464 c-12 -15 -21 -33 -21 -41 0 -18 20 -56 34 -65 17 -12 61
-9 74 4 9 9 12 6 12 -15 0 -17 -9 -32 -26 -43 -24 -16 -26 -16 -55 5 -39 29
-49 20 -16 -13 31 -31 66 -33 95 -6 19 18 22 31 22 110 0 53 -4 90 -10 90 -5
0 -10 -5 -10 -12 0 -9 -3 -9 -12 0 -21 21 -65 14 -87 -14z m83 -10 c31 -30 9
-84 -34 -84 -11 0 -27 11 -36 25 -15 23 -15 27 0 50 19 29 47 32 70 9z"/>
<path d="M2626 472 c-22 -25 -21 -85 2 -105 13 -12 34 -16 70 -14 l52 2 0 65
0 65 -54 2 c-41 2 -57 -2 -70 -15z m82 -14 c7 -7 12 -24 12 -38 0 -31 -17 -50
-45 -50 -28 0 -45 19 -45 50 0 31 17 50 45 50 12 0 26 -5 33 -12z"/>
<path d="M2860 420 c0 -40 4 -70 10 -70 6 0 10 20 10 43 0 43 21 77 48 77 18
0 32 -35 32 -79 0 -23 5 -41 10 -41 11 0 13 71 4 108 -8 27 -49 40 -76 23 -11
-7 -18 -7 -18 -1 0 5 -4 10 -10 10 -6 0 -10 -30 -10 -70z"/>
<path d="M3410 442 c0 -27 7 -57 16 -70 17 -24 53 -29 72 -10 9 9 12 9 12 0 0
-7 5 -12 10 -12 6 0 10 30 10 70 0 40 -4 70 -10 70 -5 0 -10 -19 -10 -43 0
-50 -18 -81 -46 -75 -16 3 -20 13 -22 61 -2 42 -7 57 -17 57 -11 0 -15 -13
-15 -48z"/>
<path d="M3640 395 c0 -76 -3 -96 -16 -103 -12 -7 -13 -11 -5 -16 7 -4 18 -2
26 4 18 15 22 210 5 210 -6 0 -10 -38 -10 -95z"/>
<path d="M3780 432 c0 -64 11 -82 50 -82 14 0 31 5 38 12 9 9 12 9 12 0 0 -7
5 -12 10 -12 6 0 10 30 10 70 0 39 -4 70 -8 70 -5 0 -13 -23 -18 -52 -9 -53
-29 -76 -58 -65 -12 5 -16 20 -16 62 0 30 -4 55 -10 55 -6 0 -10 -26 -10 -58z"/>
<path d="M4000 419 c0 -54 3 -69 14 -69 11 0 16 15 18 53 2 43 7 54 26 62 33
15 27 24 -18 23 l-40 0 0 -69z"/>
</g>
</svg>
